<svg width="16" height="15" viewBox="0 0 16 15" fill="none" xmlns="http://www.w3.org/2000/svg">
<path fill-rule="evenodd" clip-rule="evenodd" d="M14.5631 13.3296C14.8736 13.3296 15.1256 13.5816 15.1256 13.8921C15.1256 14.2026 14.8736 14.4546 14.5631 14.4546H9.12335C8.81285 14.4546 8.56085 14.2026 8.56085 13.8921C8.56085 13.5816 8.81285 13.3296 9.12335 13.3296H14.5631ZM11.0875 0.740171C11.1249 0.769421 12.3797 1.74442 12.3797 1.74442C12.8357 2.01592 13.1919 2.50117 13.327 3.07567C13.4612 3.64417 13.3637 4.23067 13.0509 4.72642C13.0489 4.72973 13.0468 4.73299 13.0395 4.74271L13.0339 4.75022C12.9831 4.81713 12.7625 5.09617 11.6487 6.49161C11.6383 6.5099 11.6266 6.52703 11.6138 6.54367C11.595 6.5682 11.5746 6.59076 11.5528 6.61129C11.4768 6.70694 11.3965 6.80745 11.3122 6.91312L11.1412 7.12722C10.7885 7.56895 10.3701 8.09275 9.87379 8.71404L9.61906 9.03287C8.6608 10.2322 7.43357 11.7679 5.86145 13.7347C5.5172 14.1637 5.0012 14.4134 4.44695 14.4202L1.7177 14.4547H1.7102C1.44995 14.4547 1.22345 14.2762 1.1627 14.0219L0.54845 11.4187C0.4217 10.8794 0.5477 10.3229 0.89345 9.89092L7.95845 1.05442C7.96145 1.05142 7.9637 1.04767 7.9667 1.04467C8.74145 0.118421 10.1424 -0.018079 11.0875 0.740171ZM7.17074 3.84019L1.7717 10.5937C1.64345 10.7542 1.5962 10.9612 1.64345 11.1599L2.1542 13.3237L4.43345 13.2952C4.6502 13.2929 4.85045 13.1962 4.9832 13.0312C5.66681 12.1759 6.52599 11.1008 7.40934 9.99545L8.03492 9.2126C8.86336 8.17585 9.68179 7.15149 10.3666 6.29409L7.17074 3.84019ZM8.83295 1.76242L7.87349 2.96119L11.0691 5.41439C11.6842 4.64396 12.0888 4.13654 12.1262 4.08817C12.2492 3.88867 12.2972 3.60667 12.2327 3.33517C12.1667 3.05692 11.9934 2.82067 11.7437 2.66992C11.6904 2.63317 10.4267 1.65217 10.3877 1.62142C9.9122 1.24042 9.21845 1.30642 8.83295 1.76242Z" fill="#88D790"/>
</svg>
